<?xml version="1.0" standalone="no"?>
<!DOCTYPE svg PUBLIC "-//W3C//DTD SVG 20010904//EN"
 "http://www.w3.org/TR/2001/REC-SVG-20010904/DTD/svg10.dtd">
<svg version="1.0" xmlns="http://www.w3.org/2000/svg"
 width="490.000000pt" height="374.000000pt" viewBox="0 0 490.000000 374.000000"
 preserveAspectRatio="xMidYMid meet">

<g transform="translate(0.000000,374.000000) scale(0.100000,-0.100000)"
fill="#000000" stroke="none">
<path d="M1490 2903 c0 -4 14 -44 31 -90 l32 -83 202 0 202 0 224 -382 c123
-209 229 -387 234 -395 8 -11 20 3 54 63 25 43 44 82 44 88 0 6 -79 148 -176
316 l-176 305 368 3 367 2 35 82 c19 45 36 85 37 90 2 4 -330 8 -737 8 -408 0
-741 -3 -741 -7z"/>
<path d="M2739 2168 l-416 -723 33 -65 c18 -36 38 -73 46 -83 12 -16 61 64
463 755 247 425 457 785 468 801 l18 27 -63 0 c-35 0 -79 3 -98 6 l-35 5 -416
-723z"/>
<path d="M2460 2553 c12 -21 49 -84 82 -140 33 -57 62 -103 64 -103 3 0 0 9
-6 19 -5 11 -10 60 -10 110 l0 91 -55 0 c-43 0 -56 4 -65 19 -5 11 -10 22 -10
25 0 3 70 6 155 6 85 0 155 -3 155 -6 0 -3 -5 -14 -10 -25 -9 -15 -22 -19 -63
-19 l-52 0 3 -89 c2 -53 -1 -98 -8 -110 -6 -12 -9 -21 -6 -21 2 0 28 44 57 98
28 53 63 116 76 140 l25 42 -177 0 -177 0 22 -37z"/>
<path d="M1680 2546 c0 -4 539 -948 545 -955 2 -2 27 31 54 74 38 57 48 81 42
94 -5 9 -110 189 -234 401 l-225 385 -91 3 c-50 1 -91 1 -91 -2z"/>
<path d="M853 988 c50 -121 82 -187 87 -181 8 9 80 178 80 187 0 3 -6 6 -13 6
-7 0 -24 -26 -37 -57 -12 -32 -26 -62 -30 -66 -4 -4 -19 22 -34 58 -17 39 -34
65 -43 65 -8 0 -13 -6 -10 -12z"/>
<path d="M1252 975 c-39 -32 -48 -72 -28 -119 18 -43 71 -71 117 -61 34 8 69
48 69 81 0 21 -5 24 -41 24 -43 0 -52 -22 -11 -28 26 -4 28 -15 6 -36 -31 -31
-87 -18 -110 26 -36 69 36 135 106 98 28 -15 35 6 8 24 -34 24 -82 20 -116 -9z"/>
<path d="M1450 901 c0 -84 3 -101 15 -101 13 0 15 15 13 97 -2 66 -7 98 -15
101 -10 3 -13 -21 -13 -97z"/>
<path d="M1530 901 l0 -101 51 0 c57 0 66 23 11 28 l-31 3 -3 81 c-2 54 -7 83
-15 86 -10 3 -13 -21 -13 -97z"/>
<path d="M1660 901 l0 -101 56 0 c64 0 73 23 11 28 -33 3 -37 6 -37 32 0 26 4
29 37 32 52 4 56 28 4 28 -37 0 -41 2 -41 25 0 23 4 25 41 25 61 0 45 24 -19
28 l-52 3 0 -100z"/>
<path d="M1065 908 c-50 -112 -49 -108 -33 -108 8 0 20 11 26 25 10 21 19 25
52 25 33 0 42 -4 52 -25 11 -25 45 -37 35 -12 -26 65 -81 177 -87 177 -4 0
-24 -37 -45 -82z m63 -3 c10 -21 9 -27 -3 -31 -8 -4 -22 -4 -30 0 -12 4 -13
10 -3 31 6 14 14 25 18 25 4 0 12 -11 18 -25z"/>
</g>
</svg>
